<?xml version="1.0" standalone="no"?>
<!DOCTYPE svg PUBLIC "-//W3C//DTD SVG 20010904//EN"
 "http://www.w3.org/TR/2001/REC-SVG-20010904/DTD/svg10.dtd">
<svg version="1.0" xmlns="http://www.w3.org/2000/svg"
 width="59.000000pt" height="76.000000pt" viewBox="0 0 59.000000 76.000000"
 preserveAspectRatio="xMidYMid meet">

<g transform="translate(0.000000,76.000000) scale(0.100000,-0.100000)"
fill="#000000" stroke="none">
<path d="M272 688 c-5 -7 -11 -42 -14 -78 -5 -84 -39 -156 -92 -191 -40 -27
-71 -72 -61 -89 4 -6 21 -16 38 -24 41 -17 86 -65 140 -147 59 -90 106 -94
107 -9 0 67 19 108 65 146 65 53 66 65 2 133 -59 64 -93 127 -103 192 -10 62
-55 99 -82 67z m62 -207 c8 -15 32 -50 52 -76 l36 -48 -26 -21 c-15 -11 -37
-43 -50 -69 l-23 -49 -22 36 c-12 20 -40 51 -62 70 l-40 34 30 21 c16 12 42
46 57 76 14 30 28 55 30 55 2 0 10 -13 18 -29z"/>
</g>
</svg>
