<?xml version="1.0" standalone="no"?>
<!DOCTYPE svg PUBLIC "-//W3C//DTD SVG 20010904//EN"
 "http://www.w3.org/TR/2001/REC-SVG-20010904/DTD/svg10.dtd">
<svg version="1.0" xmlns="http://www.w3.org/2000/svg"
 width="2160.000000pt" height="435.000000pt" viewBox="0 0 2160.000000 435.000000"
 preserveAspectRatio="xMidYMid meet">

<g transform="translate(0.000000,435.000000) scale(0.100000,-0.100000)"
fill="#000000" stroke="none">
<path d="M18349 4299 c-145 -22 -298 -175 -371 -371 -25 -67 -32 -103 -36
-190 -5 -125 14 -204 73 -302 19 -33 34 -62 33 -66 -7 -16 -205 -192 -318
-282 -405 -325 -958 -660 -1745 -1058 -1304 -658 -2068 -848 -4890 -1215
-1325 -173 -2127 -298 -2681 -421 -111 -24 -208 -44 -215 -43 -8 0 -38 34 -68
75 -236 324 -744 665 -1356 912 -678 273 -1340 427 -2805 652 -1000 154 -1477
248 -1909 376 -427 128 -770 291 -954 456 l-49 43 99 71 c233 170 474 403 577
558 163 244 152 438 -28 496 -63 20 -216 8 -306 -25 -146 -53 -277 -141 -392
-264 -128 -137 -187 -262 -195 -416 -8 -132 30 -256 111 -364 14 -19 26 -38
26 -42 0 -11 -201 -138 -371 -235 -85 -48 -250 -134 -366 -192 l-213 -104 0
-34 c0 -19 3 -34 6 -34 3 0 97 44 209 99 237 115 447 231 633 348 74 46 140
87 148 90 8 3 38 -17 70 -46 162 -148 475 -307 842 -427 460 -150 909 -242
2082 -424 1037 -161 1463 -243 1970 -381 968 -263 1732 -671 2091 -1119 38
-46 65 -87 61 -91 -4 -3 -61 -21 -127 -38 -266 -72 -524 -165 -683 -246 l-87
-44 70 0 c61 -1 83 5 165 40 122 53 407 148 578 193 l132 35 29 -57 c27 -55
52 -126 65 -185 5 -22 12 -27 36 -27 25 0 30 4 30 24 0 34 -38 152 -67 209
-13 27 -23 50 -21 52 6 6 374 84 558 119 553 104 1217 203 2430 361 921 120
1494 205 2000 296 1270 230 1933 454 3010 1019 861 451 1352 771 1778 1159 67
60 98 82 106 75 7 -5 35 -26 62 -46 110 -84 307 -170 531 -232 261 -73 507
-118 1288 -236 744 -113 1094 -174 1449 -256 83 -19 151 -34 153 -34 2 0 3 15
3 33 l0 34 -162 37 c-348 78 -737 147 -1398 246 -874 131 -1176 189 -1452 281
-125 41 -299 126 -376 183 l-62 46 91 103 c180 202 292 386 325 533 43 196
-47 318 -217 293z m107 -78 c87 -53 65 -234 -53 -426 -76 -124 -276 -366 -298
-361 -5 1 -20 17 -32 35 -96 142 -89 361 17 541 71 122 212 230 300 230 19 0
49 -9 66 -19z m-16774 -293 c22 -6 52 -27 70 -46 29 -34 30 -39 26 -106 -13
-195 -231 -460 -624 -758 l-134 -101 -26 24 c-40 38 -101 169 -114 248 -23
135 31 296 145 434 173 210 488 356 657 305z"/>
<path d="M18581 2933 c-19 -37 -73 -202 -122 -372 -28 -97 -64 -219 -80 -271
-17 -52 -62 -205 -100 -340 -39 -135 -90 -305 -115 -378 -24 -74 -44 -144 -44
-158 0 -34 32 -51 156 -81 60 -14 183 -48 274 -74 91 -27 239 -70 329 -96
l163 -48 -6 -65 c-8 -76 -25 -148 -37 -156 -5 -2 -57 1 -116 7 -131 15 -260
13 -290 -3 -13 -6 -23 -21 -23 -33 0 -29 30 -55 125 -107 253 -138 465 -206
868 -278 143 -26 191 -24 195 6 4 27 -18 44 -173 139 -210 128 -226 139 -247
173 -18 30 -19 39 -9 88 17 85 47 147 68 140 50 -15 472 -117 563 -135 58 -12
139 -31 182 -42 42 -10 89 -19 105 -19 71 0 104 61 198 360 37 118 109 341
160 495 189 575 194 590 175 634 -9 24 -22 32 -73 46 -34 9 -177 55 -317 100
-223 73 -608 187 -925 274 -55 15 -176 49 -270 75 -153 43 -558 136 -591 136
-7 0 -17 -8 -23 -17z m266 -68 c115 -25 296 -72 403 -104 194 -59 244 -74 585
-171 272 -78 601 -178 842 -255 18 -6 -18 -131 -37 -128 -8 1 -55 16 -105 34
-49 17 -144 48 -210 69 -66 20 -221 69 -345 108 -124 39 -335 101 -470 137
-135 36 -328 89 -430 116 -347 93 -485 132 -493 139 -11 10 23 100 39 100 7 0
107 -20 221 -45z m33 -176 c240 -70 523 -146 625 -168 55 -12 174 -46 265 -75
178 -57 175 -55 151 -118 l-9 -25 -169 49 c-92 27 -278 78 -413 112 -259 67
-769 214 -783 226 -5 4 -3 26 3 48 l13 40 91 -25 c50 -14 152 -43 226 -64z
m-89 -99 c134 -40 294 -86 354 -103 61 -17 111 -31 112 -32 2 -1 -15 -62 -37
-136 -23 -74 -65 -222 -95 -329 -30 -107 -65 -229 -78 -270 -27 -83 -145 -412
-150 -417 -2 -1 -44 11 -93 27 -49 17 -172 53 -274 81 -159 43 -339 97 -348
104 -1 1 9 33 23 71 14 38 65 206 114 374 194 670 206 710 217 706 6 -2 120
-36 255 -76z m619 -170 c63 -16 201 -54 305 -85 105 -31 295 -85 424 -121 129
-35 236 -66 238 -68 10 -10 -332 -1114 -351 -1133 -12 -12 -342 68 -631 152
-82 24 -215 60 -295 80 -80 19 -153 39 -162 43 -14 6 -7 34 64 232 44 124 111
338 149 475 87 312 131 455 138 455 3 0 58 -13 121 -30z m696 -81 c99 -32 124
-44 120 -56 -3 -8 -9 -26 -12 -39 -4 -17 -12 -23 -23 -20 -9 3 -68 19 -131 36
-63 18 -116 34 -118 35 -7 6 21 85 30 85 5 0 65 -18 134 -41z m642 -55 c4 -39
-29 -148 -196 -649 -39 -115 -96 -293 -127 -395 -61 -199 -98 -299 -128 -342
-23 -35 -45 -36 -185 -2 -59 14 -198 45 -309 69 -112 25 -283 66 -380 91 -98
26 -232 60 -298 76 -123 31 -254 68 -550 156 -93 28 -213 60 -265 72 -52 12
-110 28 -129 36 -29 12 -32 17 -26 41 3 16 10 32 14 36 4 4 41 -3 82 -17 41
-13 151 -45 244 -71 94 -25 224 -64 290 -85 66 -22 183 -56 260 -75 77 -20
232 -62 345 -95 243 -70 338 -94 608 -154 225 -51 252 -54 275 -28 19 21 137
362 216 622 32 107 93 301 135 430 41 129 81 254 86 278 12 49 33 52 38 6z
m-415 -15 c40 -12 73 -23 74 -23 1 -1 -2 -18 -7 -38 l-10 -36 -78 20 c-42 11
-79 21 -80 23 -5 4 20 75 26 75 2 0 36 -10 75 -21z m261 -84 c25 -10 46 -21
46 -24 0 -4 -25 -81 -55 -171 -31 -91 -87 -270 -126 -399 -82 -272 -195 -600
-213 -619 -10 -10 -29 -9 -100 7 -48 10 -89 21 -91 23 -2 2 7 35 20 73 88 259
260 812 324 1046 l33 117 58 -18 c32 -10 78 -25 104 -35z m-1358 -1116 l111
-30 -19 -38 c-38 -76 -58 -223 -38 -275 13 -36 30 -32 30 6 l0 32 28 -26 c24
-24 151 -105 307 -197 73 -42 69 -40 63 -46 -13 -13 -501 85 -628 127 -151 50
-380 157 -459 216 -41 31 -29 42 49 42 54 0 301 -21 309 -26 2 -2 -8 -23 -23
-48 -19 -32 -23 -47 -14 -52 34 -21 105 153 115 284 7 85 -15 81 169 31z"/>
<path d="M20337 2393 c-14 -13 -7 -43 12 -53 15 -7 24 -6 36 6 15 15 15 18 -1
35 -18 19 -36 24 -47 12z m43 -24 c0 -12 -29 -24 -37 -16 -3 4 -3 13 0 21 6
16 37 11 37 -5z"/>
<path d="M20449 2354 c-17 -21 0 -49 32 -49 29 0 36 26 14 49 -20 20 -29 20
-46 0z m41 -25 c0 -24 -23 -21 -28 4 -2 10 3 17 12 17 10 0 16 -9 16 -21z"/>
<path d="M20571 2316 c-17 -20 3 -56 30 -56 24 0 36 27 22 49 -14 22 -37 25
-52 7z m39 -27 c0 -18 -2 -19 -15 -9 -8 7 -15 16 -15 21 0 5 7 9 15 9 9 0 15
-9 15 -21z"/>
<path d="M18641 2537 c-6 -7 -12 -28 -13 -46 l-3 -33 90 -28 c50 -15 140 -46
200 -69 61 -22 117 -41 126 -41 18 0 29 20 29 51 0 23 -64 55 -248 123 -148
55 -167 59 -181 43z m172 -66 c121 -45 227 -88 235 -95 1 -2 0 -10 -4 -19 -5
-14 -19 -11 -102 19 -53 20 -141 50 -194 67 -69 23 -98 37 -98 48 0 17 9 29
22 29 4 0 68 -22 141 -49z"/>
<path d="M18607 2409 c-9 -13 -29 -78 -46 -144 -17 -66 -40 -147 -51 -180 -59
-168 -160 -522 -155 -542 4 -18 22 -27 88 -48 45 -14 130 -44 189 -66 60 -22
116 -38 126 -35 14 5 34 54 80 199 103 322 194 656 188 682 -4 14 -17 32 -30
40 -32 21 -281 105 -332 112 -36 5 -44 2 -57 -18z m221 -65 c75 -25 143 -53
150 -63 8 -10 11 -28 7 -48 -15 -80 -194 -695 -211 -724 -3 -6 -137 35 -295
90 l-76 26 29 95 c16 52 53 172 83 265 29 94 64 211 76 260 29 118 43 145 75
145 13 0 86 -21 162 -46z m-253 -802 c179 -58 197 -68 176 -101 -8 -12 -22
-10 -88 14 -43 16 -121 43 -173 60 -86 29 -95 34 -98 58 -2 15 -2 27 0 27 2 0
84 -26 183 -58z"/>
<path d="M18716 2201 c-8 -12 3 -41 15 -41 12 0 12 37 0 45 -5 3 -12 1 -15 -4z"/>
<path d="M18820 2160 c0 -24 15 -27 24 -4 9 22 8 24 -9 24 -8 0 -15 -9 -15
-20z"/>
<path d="M18610 2105 c0 -8 7 -15 16 -15 14 0 14 3 4 15 -7 8 -14 15 -16 15
-2 0 -4 -7 -4 -15z"/>
<path d="M18680 2092 c-23 -19 -25 -27 -27 -114 -1 -51 -5 -106 -8 -121 -13
-71 51 -94 84 -29 11 20 36 53 56 72 71 68 82 120 37 171 -37 41 -105 51 -142
21z m108 -22 c28 -17 32 -25 32 -61 0 -37 -6 -47 -56 -96 -79 -75 -88 -71 -87
46 0 86 3 96 23 113 28 23 47 23 88 -2z m-90 -248 c2 -7 -3 -12 -12 -12 -9 0
-16 7 -16 16 0 17 22 14 28 -4z"/>
<path d="M18708 1989 c-5 -64 -2 -73 9 -28 10 36 20 43 42 30 11 -7 11 -13 -3
-32 -25 -36 -19 -48 8 -15 24 31 24 71 0 62 -8 -3 -14 -1 -14 5 0 6 -4 8 -9 4
-6 -3 -14 2 -19 12 -7 12 -11 3 -14 -38z"/>
<path d="M18885 2081 c-10 -17 12 -21 25 -6 10 12 10 15 -3 15 -9 0 -18 -4
-22 -9z"/>
<path d="M19360 2291 c0 -11 26 -22 34 -14 3 3 3 10 0 14 -7 12 -34 11 -34 0z"/>
<path d="M19425 2270 c3 -5 13 -10 21 -10 8 0 14 5 14 10 0 6 -9 10 -21 10
-11 0 -17 -4 -14 -10z"/>
<path d="M19510 2245 c0 -8 6 -15 13 -15 6 0 22 -3 35 -6 34 -10 26 13 -9 25
-40 14 -39 14 -39 -4z"/>
<path d="M19330 2239 c0 -5 5 -7 10 -4 6 3 10 8 10 11 0 2 -4 4 -10 4 -5 0
-10 -5 -10 -11z"/>
<path d="M19806 2243 c-3 -3 -3 -10 0 -14 7 -12 34 -11 34 0 0 11 -26 22 -34
14z"/>
<path d="M19390 2231 c0 -6 5 -13 10 -16 6 -3 10 1 10 9 0 9 -4 16 -10 16 -5
0 -10 -4 -10 -9z"/>
<path d="M19610 2211 c0 -12 29 -23 41 -15 5 3 7 10 4 15 -8 12 -45 12 -45 0z"/>
<path d="M19875 2211 c-7 -13 -13 -10 129 -55 61 -19 114 -32 119 -29 14 8 -8
18 -119 54 -54 17 -104 34 -110 36 -7 2 -15 0 -19 -6z"/>
<path d="M19460 2200 c0 -5 4 -10 9 -10 6 0 13 5 16 10 3 6 -1 10 -9 10 -9 0
-16 -4 -16 -10z"/>
<path d="M19685 2190 c-3 -5 0 -12 7 -15 41 -15 101 -35 104 -35 2 0 4 5 4 11
0 9 -37 28 -87 43 -12 4 -24 2 -28 -4z"/>
<path d="M19520 2186 c0 -8 104 -56 120 -56 23 0 7 21 -27 36 -46 19 -93 29
-93 20z"/>
<path d="M19842 2141 c4 -13 18 -16 19 -4 0 4 -5 9 -11 12 -7 2 -11 -2 -8 -8z"/>
<path d="M19680 2121 c0 -5 24 -18 53 -28 60 -20 67 -21 68 -9 0 10 -86 46
-108 46 -7 0 -13 -4 -13 -9z"/>
<path d="M19902 2118 c3 -7 15 -15 28 -16 21 -3 22 -2 11 12 -16 19 -44 21
-39 4z"/>
<path d="M20150 2120 c0 -5 5 -10 10 -10 6 0 10 5 10 10 0 6 -4 10 -10 10 -5
0 -10 -4 -10 -10z"/>
<path d="M19965 2100 c-6 -10 34 -30 61 -30 25 0 15 18 -17 29 -39 13 -36 13
-44 1z"/>
<path d="M19840 2070 c0 -12 33 -30 54 -30 27 0 18 18 -15 29 -39 13 -39 13
-39 1z"/>
<path d="M19664 2045 c22 -17 46 -20 46 -6 0 10 -25 21 -48 21 -15 -1 -14 -3
2 -15z"/>
<path d="M19935 2040 c-9 -14 66 -43 78 -31 7 7 6 12 -4 15 -8 3 -26 10 -41
15 -17 6 -30 7 -33 1z"/>
<path d="M19752 2018 c5 -14 77 -40 98 -35 8 2 -6 13 -33 25 -55 25 -70 27
-65 10z"/>
<path d="M19870 1970 c0 -12 48 -25 58 -16 8 9 -18 26 -40 26 -10 0 -18 -4
-18 -10z"/>
<path d="M19300 1960 c0 -5 7 -10 16 -10 8 0 12 5 9 10 -3 6 -10 10 -16 10 -5
0 -9 -4 -9 -10z"/>
<path d="M19352 1951 c4 -13 18 -16 19 -4 0 4 -5 9 -11 12 -7 2 -11 -2 -8 -8z"/>
<path d="M19962 1949 c2 -7 10 -15 17 -17 8 -3 12 1 9 9 -2 7 -10 15 -17 17
-8 3 -12 -1 -9 -9z"/>
<path d="M19395 1939 c-4 -5 6 -14 20 -19 33 -12 45 -13 45 -1 0 13 -58 32
-65 20z"/>
<path d="M19480 1911 c0 -5 21 -16 47 -25 55 -19 53 -19 53 -6 0 10 -63 40
-86 40 -8 0 -14 -4 -14 -9z"/>
<path d="M19590 1870 c0 -5 9 -10 20 -10 11 0 20 5 20 10 0 6 -9 10 -20 10
-11 0 -20 -4 -20 -10z"/>
<path d="M19652 1859 c2 -7 10 -15 17 -17 8 -3 12 1 9 9 -2 7 -10 15 -17 17
-8 3 -12 -1 -9 -9z"/>
<path d="M19710 1844 c0 -7 66 -34 85 -34 26 0 16 18 -16 29 -34 12 -69 15
-69 5z"/>
<path d="M20075 1840 c3 -5 8 -10 11 -10 2 0 4 5 4 10 0 6 -5 10 -11 10 -5 0
-7 -4 -4 -10z"/>
<path d="M19625 1809 c-4 -5 6 -14 20 -19 33 -12 45 -13 45 -1 0 13 -58 32
-65 20z"/>
<path d="M19850 1800 c0 -14 49 -32 74 -27 17 3 14 6 -16 20 -43 20 -58 21
-58 7z"/>
<path d="M19465 1781 c-3 -6 5 -15 20 -21 34 -13 35 -13 35 5 0 8 -4 15 -9 15
-5 0 -16 3 -24 6 -8 3 -18 1 -22 -5z"/>
<path d="M19712 1781 c4 -13 18 -16 19 -4 0 4 -5 9 -11 12 -7 2 -11 -2 -8 -8z"/>
<path d="M19770 1766 c0 -14 68 -38 83 -29 11 7 -12 21 -54 33 -21 6 -29 5
-29 -4z"/>
<path d="M19986 1760 c16 -16 73 -30 79 -19 7 10 -36 29 -68 29 -14 0 -18 -3
-11 -10z"/>
<path d="M19562 1749 c6 -17 76 -41 83 -28 6 9 -10 17 -64 34 -17 5 -22 4 -19
-6z"/>
<path d="M19890 1725 c0 -7 8 -15 18 -18 9 -2 25 -8 35 -12 11 -5 17 -3 17 7
0 8 -16 19 -35 25 -27 9 -35 8 -35 -2z"/>
<path d="M19180 1710 c0 -13 48 -32 69 -27 10 3 3 10 -21 20 -44 20 -48 20
-48 7z"/>
<path d="M19670 1710 c0 -12 48 -25 58 -16 8 9 -18 26 -40 26 -10 0 -18 -4
-18 -10z"/>
<path d="M19980 1700 c0 -13 50 -33 59 -24 7 7 -28 34 -46 34 -7 0 -13 -5 -13
-10z"/>
<path d="M19740 1691 c0 -5 7 -12 16 -15 22 -9 24 -8 24 9 0 8 -9 15 -20 15
-11 0 -20 -4 -20 -9z"/>
<path d="M19286 1682 c-3 -6 -1 -14 5 -17 15 -10 25 3 12 16 -7 7 -13 7 -17 1z"/>
<path d="M19820 1670 c0 -5 2 -10 4 -10 2 0 20 -7 39 -15 23 -10 38 -11 42 -5
4 6 -9 17 -29 25 -41 18 -56 19 -56 5z"/>
<path d="M19132 1658 c3 -7 15 -14 29 -16 23 -2 23 -2 5 13 -24 18 -39 20 -34
3z"/>
<path d="M19360 1651 c0 -11 39 -25 47 -18 3 3 2 10 -2 16 -8 13 -45 15 -45 2z"/>
<path d="M19200 1631 c0 -10 36 -21 44 -14 3 3 3 10 0 14 -7 12 -44 12 -44 0z"/>
<path d="M19430 1631 c0 -12 41 -31 66 -31 23 0 16 17 -10 24 -13 3 -31 9 -40
12 -9 3 -16 1 -16 -5z"/>
<path d="M19950 1625 c18 -17 80 -32 80 -18 0 10 -57 33 -80 33 -12 0 -12 -3
0 -15z"/>
<path d="M19286 1611 c-4 -5 -2 -12 3 -15 5 -4 12 -2 15 3 4 5 2 12 -3 15 -5
4 -12 2 -15 -3z"/>
<path d="M19340 1590 c0 -5 5 -10 10 -10 6 0 10 5 10 10 0 6 -4 10 -10 10 -5
0 -10 -4 -10 -10z"/>
<path d="M19556 1591 c-6 -9 36 -31 59 -31 26 0 16 18 -16 29 -38 13 -37 13
-43 2z"/>
<path d="M19804 1592 c8 -14 75 -36 84 -28 10 11 -12 24 -52 32 -27 5 -37 3
-32 -4z"/>
<path d="M19380 1580 c0 -12 33 -30 54 -30 27 0 18 18 -15 29 -39 13 -39 13
-39 1z"/>
<path d="M19670 1560 c0 -11 42 -30 66 -30 25 0 15 18 -17 29 -40 14 -49 14
-49 1z"/>
<path d="M19920 1561 c0 -16 72 -43 83 -32 7 7 2 13 -14 19 -53 20 -69 23 -69
13z"/>
<path d="M19472 1549 c5 -16 77 -41 103 -36 16 3 13 6 -15 19 -54 24 -93 31
-88 17z"/>
<path d="M19770 1530 c0 -10 41 -30 61 -30 18 0 8 17 -16 28 -32 15 -45 15
-45 2z"/>
<path d="M19620 1500 c0 -5 5 -10 10 -10 6 0 10 5 10 10 0 6 -4 10 -10 10 -5
0 -10 -4 -10 -10z"/>
<path d="M19675 1490 c-5 -8 54 -40 76 -40 22 0 6 21 -27 35 -43 18 -41 18
-49 5z"/>
<path d="M19796 1451 c-4 -5 -2 -12 3 -15 5 -4 12 -2 15 3 4 5 2 12 -3 15 -5
4 -12 2 -15 -3z"/>
<path d="M19160 1425 c0 -8 7 -15 15 -15 8 0 15 4 15 9 0 5 -7 11 -15 15 -9 3
-15 0 -15 -9z"/>
<path d="M19580 1430 c0 -5 5 -10 10 -10 6 0 10 5 10 10 0 6 -4 10 -10 10 -5
0 -10 -4 -10 -10z"/>
<path d="M19630 1420 c0 -13 48 -32 69 -27 11 2 6 8 -16 20 -37 19 -53 22 -53
7z"/>
<path d="M19220 1410 c0 -5 9 -10 21 -10 11 0 17 5 14 10 -3 6 -13 10 -21 10
-8 0 -14 -4 -14 -10z"/>
<path d="M19302 1390 c3 -10 72 -38 96 -40 1 0 2 6 2 14 0 7 -12 16 -27 20
-16 3 -39 9 -52 12 -17 5 -22 3 -19 -6z"/>
<path d="M19735 1381 c6 -5 23 -13 39 -17 22 -5 28 -4 24 7 -2 8 -20 15 -39
17 -23 2 -31 0 -24 -7z"/>
<path d="M19460 1346 c0 -12 28 -25 53 -26 19 0 4 19 -23 29 -24 8 -30 7 -30
-3z"/>
<path d="M19105 1341 c7 -12 64 -25 73 -16 3 3 0 10 -8 15 -19 12 -73 13 -65
1z"/>
<path d="M19226 1310 c16 -16 73 -30 79 -19 7 10 -36 29 -68 29 -14 0 -18 -3
-11 -10z"/>
<path d="M19570 1312 c0 -12 60 -32 73 -24 14 7 -6 21 -41 28 -20 4 -32 3 -32
-4z"/>
<path d="M19345 1281 c14 -14 49 -18 55 -6 3 6 -11 11 -30 13 -24 2 -32 0 -25
-7z"/>
<path d="M19712 1279 c5 -16 76 -40 83 -29 6 10 -18 24 -58 34 -21 5 -28 3
-25 -5z"/>
<path d="M19420 1260 c0 -5 7 -10 15 -10 8 0 18 0 22 -1 4 0 9 4 11 10 2 6 -8
11 -22 11 -14 0 -26 -4 -26 -10z"/>
<path d="M19525 1239 c-4 -5 6 -14 20 -19 34 -13 55 -13 55 0 0 6 -1 10 -3 10
-1 0 -17 4 -34 9 -20 6 -35 6 -38 0z"/>
<path d="M19845 1239 c-7 -10 55 -40 68 -32 12 7 -1 20 -33 31 -19 7 -32 7
-35 1z"/>
<path d="M19640 1200 c0 -5 7 -10 15 -10 8 0 15 5 15 10 0 6 -7 10 -15 10 -8
0 -15 -4 -15 -10z"/>
<path d="M19700 1190 c0 -14 49 -32 74 -27 17 3 14 6 -16 20 -43 20 -58 21
-58 7z"/>
<path d="M19810 1156 c0 -14 78 -41 88 -32 9 10 -11 23 -50 34 -29 8 -38 7
-38 -2z"/>
<path d="M723 1924 c-255 -229 -463 -423 -463 -431 0 -9 104 -220 232 -470
l232 -454 395 -230 c248 -144 400 -227 408 -222 66 47 942 822 942 834 1 9 -5
21 -11 27 -7 6 -184 109 -392 230 l-379 220 -233 454 c-170 332 -237 454 -250
455 -13 2 -175 -138 -481 -413z m694 -69 c118 -231 221 -429 228 -441 8 -12
183 -119 390 -239 206 -120 374 -222 373 -226 -5 -13 -888 -779 -899 -779 -12
0 -713 407 -739 429 -21 18 -463 877 -458 890 6 15 873 790 881 788 5 -2 106
-192 224 -422z"/>
<path d="M762 1824 c-300 -278 -383 -360 -379 -375 6 -21 364 -716 380 -736 5
-7 17 -13 27 -13 19 0 780 661 794 690 6 14 -39 107 -189 391 -186 353 -214
399 -239 399 -6 0 -184 -160 -394 -356z m413 277 c15 -30 15 -30 -38 -79 -182
-172 -673 -622 -678 -622 -11 0 -30 53 -22 61 23 22 718 668 720 669 1 0 9
-13 18 -29z m174 -330 c72 -136 131 -252 130 -257 0 -5 -30 -34 -66 -63 -52
-44 -67 -52 -74 -40 -5 7 -69 119 -143 246 l-135 232 71 66 c39 36 74 65 78
65 5 0 67 -112 139 -249z m-176 -165 c75 -130 137 -239 137 -241 0 -11 -235
-204 -240 -198 -6 7 -263 430 -278 457 -7 12 219 227 233 222 6 -1 72 -109
148 -240z m-278 -239 c77 -127 140 -234 140 -237 0 -4 -68 -65 -151 -137
l-150 -131 -128 244 -127 245 83 77 c46 42 105 98 133 124 27 26 52 48 55 47
3 0 68 -104 145 -232z m630 73 c8 -16 15 -31 15 -34 0 -3 -588 -520 -732 -644
-16 -13 -19 -11 -34 22 -11 22 -14 40 -8 45 18 19 739 641 741 641 1 0 9 -13
18 -30z"/>
<path d="M1132 2083 c2 -10 10 -18 18 -18 8 0 16 8 18 18 2 12 -3 17 -18 17
-15 0 -20 -5 -18 -17z"/>
<path d="M1090 2040 c0 -11 7 -20 15 -20 8 0 15 9 15 20 0 11 -7 20 -15 20 -8
0 -15 -9 -15 -20z"/>
<path d="M1047 2004 c-9 -10 2 -24 19 -24 8 0 14 7 14 15 0 15 -21 21 -33 9z"/>
<path d="M1018 1756 c-21 -16 -24 -36 -5 -36 14 0 47 31 47 43 0 11 -24 7 -42
-7z"/>
<path d="M935 1680 c-10 -11 -15 -23 -12 -27 10 -9 57 18 57 34 0 19 -24 16
-45 -7z"/>
<path d="M1043 1675 c-3 -9 -3 -19 1 -22 8 -9 37 18 30 28 -8 14 -24 11 -31
-6z"/>
<path d="M880 1620 c0 -5 5 -10 10 -10 6 0 10 5 10 10 0 6 -4 10 -10 10 -5 0
-10 -4 -10 -10z"/>
<path d="M980 1615 c-7 -9 -10 -18 -7 -21 10 -10 47 7 47 22 0 19 -24 18 -40
-1z"/>
<path d="M1106 1623 c-11 -11 -6 -23 9 -23 8 0 15 4 15 9 0 13 -16 22 -24 14z"/>
<path d="M1052 1568 c-14 -14 -16 -38 -4 -38 10 0 42 33 42 43 0 11 -25 8 -38
-5z"/>
<path d="M926 1563 c-11 -11 -6 -23 9 -23 8 0 15 4 15 9 0 13 -16 22 -24 14z"/>
<path d="M1149 1531 c-17 -14 -21 -23 -13 -31 8 -8 17 -6 35 9 17 14 21 23 13
31 -8 8 -17 6 -35 -9z"/>
<path d="M1000 1510 c0 -5 5 -10 10 -10 6 0 10 5 10 10 0 6 -4 10 -10 10 -5 0
-10 -4 -10 -10z"/>
<path d="M952 1469 c2 -6 8 -10 13 -10 5 0 11 4 13 10 2 6 -4 11 -13 11 -9 0
-15 -5 -13 -11z"/>
<path d="M1077 1462 c-20 -22 -22 -42 -4 -42 16 0 47 32 47 48 0 18 -25 14
-43 -6z"/>
<path d="M1182 1458 c-13 -13 -16 -38 -4 -38 13 1 42 27 42 39 0 15 -23 14
-38 -1z"/>
<path d="M1020 1395 c0 -8 5 -15 10 -15 6 0 10 7 10 15 0 8 -4 15 -10 15 -5 0
-10 -7 -10 -15z"/>
<path d="M1125 1397 c-24 -18 -11 -41 16 -27 10 6 19 17 19 25 0 19 -11 19
-35 2z"/>
<path d="M1240 1370 c0 -5 5 -10 10 -10 6 0 10 5 10 10 0 6 -4 10 -10 10 -5 0
-10 -4 -10 -10z"/>
<path d="M1185 1330 c-3 -5 1 -10 9 -10 9 0 16 5 16 10 0 6 -4 10 -9 10 -6 0
-13 -4 -16 -10z"/>
<path d="M1045 1319 c-4 -6 -4 -13 -1 -16 8 -8 36 5 36 17 0 13 -27 13 -35 -1z"/>
<path d="M1130 1275 c0 -9 5 -15 11 -13 6 2 11 8 11 13 0 5 -5 11 -11 13 -6 2
-11 -4 -11 -13z"/>
<path d="M720 1505 c-7 -9 -10 -18 -7 -21 10 -10 47 7 47 22 0 19 -24 18 -40
-1z"/>
<path d="M670 1445 c0 -8 5 -15 10 -15 6 0 10 7 10 15 0 8 -4 15 -10 15 -5 0
-10 -7 -10 -15z"/>
<path d="M787 1442 c-21 -22 -21 -32 -4 -32 18 0 49 34 40 43 -10 11 -19 8
-36 -11z"/>
<path d="M623 1413 c-18 -6 -16 -33 1 -33 19 0 31 19 20 30 -5 4 -15 5 -21 3z"/>
<path d="M730 1380 c0 -5 5 -10 10 -10 6 0 10 5 10 10 0 6 -4 10 -10 10 -5 0
-10 -4 -10 -10z"/>
<path d="M830 1380 c0 -5 7 -10 15 -10 8 0 15 5 15 10 0 6 -7 10 -15 10 -8 0
-15 -4 -15 -10z"/>
<path d="M558 1349 c-17 -9 -26 -39 -12 -39 16 0 44 23 44 35 0 17 -8 18 -32
4z"/>
<path d="M678 1346 c-10 -7 -18 -18 -18 -25 0 -16 25 -14 40 4 18 22 0 37 -22
21z"/>
<path d="M790 1340 c0 -5 5 -10 10 -10 6 0 10 5 10 10 0 6 -4 10 -10 10 -5 0
-10 -4 -10 -10z"/>
<path d="M853 1316 c-20 -18 -25 -28 -17 -36 13 -13 64 23 64 46 0 21 -15 17
-47 -10z"/>
<path d="M746 1301 c-4 -7 -5 -15 -2 -18 9 -9 19 4 14 18 -4 11 -6 11 -12 0z"/>
<path d="M607 1282 c-21 -22 -21 -32 -4 -32 18 0 49 34 40 43 -10 11 -19 8
-36 -11z"/>
<path d="M920 1260 c0 -5 5 -10 10 -10 6 0 10 5 10 10 0 6 -4 10 -10 10 -5 0
-10 -4 -10 -10z"/>
<path d="M662 1237 c-22 -23 -29 -47 -14 -47 14 0 52 31 62 51 16 28 -20 26
-48 -4z"/>
<path d="M763 1236 c-20 -18 -25 -28 -17 -36 13 -13 64 23 64 46 0 21 -15 17
-47 -10z"/>
<path d="M852 1207 c-42 -45 -20 -66 23 -22 14 13 25 29 25 35 0 18 -26 11
-48 -13z"/>
<path d="M943 1185 c-3 -9 -2 -19 1 -23 8 -8 38 10 44 26 6 18 -38 14 -45 -3z"/>
<path d="M679 1161 c-13 -11 -21 -23 -17 -27 12 -11 58 13 58 31 0 20 -13 19
-41 -4z"/>
<path d="M780 1140 c0 -5 7 -10 15 -10 8 0 15 5 15 10 0 6 -7 10 -15 10 -8 0
-15 -4 -15 -10z"/>
<path d="M907 1143 c-12 -11 -8 -23 8 -23 8 0 15 7 15 15 0 16 -12 20 -23 8z"/>
<path d="M745 1101 c-3 -5 -1 -12 5 -16 5 -3 10 1 10 9 0 18 -6 21 -15 7z"/>
<path d="M841 1086 c-34 -36 -16 -54 20 -20 15 15 26 31 23 36 -8 13 -19 9
-43 -16z"/>
<path d="M690 1049 c-7 -11 -9 -24 -5 -27 9 -9 40 13 43 32 5 23 -25 20 -38
-5z"/>
<path d="M780 1025 c0 -8 7 -15 15 -15 8 0 15 7 15 15 0 8 -7 15 -15 15 -8 0
-15 -7 -15 -15z"/>
<path d="M730 980 c0 -5 7 -10 16 -10 8 0 12 5 9 10 -3 6 -10 10 -16 10 -5 0
-9 -4 -9 -10z"/>
<path d="M1567 1257 c-45 -40 -215 -190 -378 -334 -163 -144 -299 -269 -302
-277 -8 -20 11 -34 153 -111 69 -37 146 -81 173 -96 26 -16 52 -29 58 -29 5 0
174 149 374 330 349 318 394 366 368 391 -12 12 -347 199 -356 199 -4 0 -44
-33 -90 -73z m291 -87 c62 -35 111 -66 110 -70 -2 -4 -160 -150 -352 -324
l-348 -317 -42 24 c-22 13 -97 55 -164 92 -68 37 -120 71 -115 75 4 4 167 148
361 319 l354 312 41 -24 c23 -13 93 -52 155 -87z"/>
<path d="M1715 728 c-93 -83 -174 -157 -178 -165 -11 -19 3 -34 81 -89 94 -66
105 -69 144 -36 79 65 328 295 328 304 0 18 -46 54 -122 96 -42 23 -78 42 -80
42 -2 0 -79 -68 -173 -152z m251 61 c36 -23 64 -44 62 -48 -2 -4 -55 -53 -118
-111 -63 -57 -132 -119 -152 -138 l-37 -35 -66 48 c-37 26 -63 51 -58 56 19
19 298 268 301 269 1 0 32 -19 68 -41z"/>
<path d="M17379 2283 c-16 -43 10 -542 32 -600 10 -26 46 -32 55 -9 3 8 0 66
-6 128 -7 62 -15 201 -19 308 -6 192 -6 195 -28 198 -17 3 -26 -4 -34 -25z"/>
<path d="M17537 2143 c-15 -14 -6 -44 16 -52 12 -5 47 -14 78 -20 31 -7 65
-18 75 -26 18 -13 15 -17 -50 -79 -47 -45 -66 -71 -62 -82 3 -8 6 -18 6 -20 0
-2 9 -4 21 -4 25 0 142 110 159 149 15 37 -1 76 -39 96 -56 28 -189 54 -204
38z"/>
<path d="M17133 2086 c-123 -113 -121 -154 9 -217 91 -44 131 -47 136 -12 3
18 -10 28 -84 63 l-88 41 72 72 c53 53 71 78 66 90 -12 32 -51 19 -111 -37z"/>
<path d="M2459 1953 c-69 -63 -92 -128 -108 -310 -15 -163 7 -275 58 -303 11
-5 37 -10 57 -10 53 0 112 63 149 159 16 39 30 71 33 71 3 0 29 -12 59 -26 43
-22 73 -28 151 -32 53 -3 100 -9 103 -14 4 -6 4 -39 1 -73 -7 -87 21 -145 84
-175 55 -27 100 -21 136 18 36 38 51 71 87 192 70 231 44 360 -73 360 -58 1
-119 16 -199 51 -38 17 -120 41 -181 54 -61 13 -133 35 -160 49 -35 19 -64 26
-102 26 -48 0 -58 -4 -95 -37z m167 -49 c27 -15 99 -37 161 -50 62 -12 143
-36 180 -52 86 -38 137 -52 189 -52 25 0 51 -7 64 -18 21 -17 22 -23 15 -88
-5 -38 -8 -75 -6 -81 3 -18 -48 -181 -70 -224 -28 -56 -65 -64 -104 -24 -22
22 -25 32 -25 105 0 82 -17 138 -43 142 -6 0 -52 2 -102 3 -97 2 -145 17 -197
60 -57 48 -68 38 -148 -138 -18 -38 -42 -75 -57 -84 -25 -16 -26 -16 -44 5
-10 13 -21 44 -25 70 -8 52 9 266 26 323 20 71 74 128 121 129 9 0 38 -12 65
-26z"/>
<path d="M2567 1846 c-3 -8 1 -20 9 -27 12 -10 18 -9 31 3 8 9 12 21 9 27 -10
16 -43 14 -49 -3z"/>
<path d="M2491 1806 c-16 -19 -6 -36 20 -36 15 0 20 6 17 22 -4 27 -21 33 -37
14z"/>
<path d="M2627 1756 c-3 -8 0 -21 6 -31 17 -22 47 -9 47 21 0 19 -5 24 -24 24
-13 0 -26 -6 -29 -14z"/>
<path d="M2514 1735 c-9 -23 3 -45 25 -45 23 0 35 28 20 46 -15 18 -38 18 -45
-1z"/>
<path d="M3121 1691 c-6 -11 -21 -21 -33 -23 -17 -2 -24 -11 -26 -30 -2 -16 2
-28 8 -28 6 0 16 -11 22 -25 12 -27 27 -31 56 -16 9 5 25 12 35 15 25 8 32 34
14 54 -8 9 -17 28 -19 42 -4 32 -42 40 -57 11z"/>
<path d="M2724 1685 c-12 -30 6 -43 79 -61 84 -19 110 -15 105 18 -2 19 -15
26 -63 40 -77 21 -114 22 -121 3z"/>
<path d="M15247 1359 c-79 -42 -101 -131 -47 -193 l30 -34 -60 -58 c-74 -71
-78 -99 -24 -174 40 -55 61 -62 101 -30 33 25 45 25 69 -1 19 -21 19 -22 0
-33 -10 -6 -28 -19 -40 -28 -21 -16 -21 -17 -2 -50 31 -55 78 -98 118 -109 45
-12 40 -14 151 75 95 76 107 101 62 130 -14 9 -25 23 -25 31 0 22 40 18 66 -6
34 -32 64 -19 144 60 80 78 86 101 42 153 -16 18 -39 45 -52 61 -26 30 -70 36
-90 12 -15 -19 -50 -20 -50 -2 0 8 11 24 25 37 14 13 25 31 25 40 0 22 -80
128 -102 135 -21 7 -51 -8 -102 -52 -22 -18 -42 -33 -45 -33 -4 0 -12 14 -19
30 -26 59 -105 76 -175 39z m111 -61 c7 -7 12 -27 12 -44 0 -37 31 -67 59 -57
9 4 42 28 74 55 32 26 62 48 65 48 4 0 15 -12 25 -25 18 -25 18 -26 -2 -52
-63 -79 19 -174 114 -131 23 10 29 9 58 -20 l32 -32 -53 -52 -52 -52 -29 17
c-45 26 -88 22 -122 -12 -33 -33 -36 -58 -14 -101 l15 -29 -60 -51 c-34 -27
-67 -50 -74 -50 -7 0 -23 11 -35 24 l-22 23 26 39 c19 27 24 46 20 64 -10 42
-35 71 -72 87 -32 13 -41 13 -74 0 -34 -14 -39 -13 -53 2 -9 10 -16 24 -16 31
0 7 36 47 80 87 63 59 80 81 80 103 0 36 -22 55 -49 41 -25 -14 -27 -14 -45 5
-21 21 -20 27 10 63 28 33 78 43 102 19z"/>
<path d="M5139 1301 c-20 -13 -33 -45 -54 -131 -9 -36 -34 -123 -56 -193 -22
-72 -37 -137 -34 -148 5 -15 16 -19 53 -19 75 0 113 -16 186 -77 38 -32 81
-66 97 -76 28 -18 29 -18 73 8 48 28 124 41 181 31 28 -6 43 -17 68 -52 30
-42 35 -45 66 -40 19 3 38 9 43 14 8 8 144 384 155 428 12 50 -104 131 -203
141 -57 6 -163 -11 -205 -32 -25 -13 -28 -12 -75 36 -27 28 -76 64 -110 80
-65 32 -158 47 -185 30z m146 -85 c28 -13 72 -47 99 -75 l50 -50 -43 -163
c-23 -90 -44 -169 -46 -175 -6 -18 -24 -16 -31 2 -4 8 -37 36 -75 62 -53 35
-81 47 -119 51 -28 2 -50 7 -50 9 0 3 13 48 29 101 17 54 40 134 52 180 21 81
22 82 53 82 17 0 54 -11 81 -24z m513 -127 c41 -23 52 -34 47 -47 -4 -9 -31
-87 -60 -172 -29 -85 -57 -163 -61 -173 -6 -16 -11 -15 -43 16 -20 19 -54 40
-75 47 -37 12 -123 9 -173 -6 -22 -6 -22 -6 8 107 60 227 55 214 96 232 59 24
64 25 138 26 60 1 77 -3 123 -30z"/>
<path d="M4095 1136 c-16 -7 -43 -25 -58 -40 -15 -14 -30 -26 -32 -26 -2 0
-21 11 -41 25 -81 55 -184 7 -184 -87 l0 -38 -53 0 c-138 0 -217 -113 -145
-206 26 -32 91 -63 134 -64 30 0 33 -3 59 -77 51 -146 92 -213 129 -213 12 0
102 30 201 65 99 36 185 65 192 65 33 0 31 35 -8 145 -57 157 -62 184 -44 242
20 64 19 147 -1 178 -27 41 -94 55 -149 31z m99 -78 c7 -13 7 -30 -4 -65 -24
-83 -24 -165 0 -229 11 -31 19 -57 18 -58 -14 -9 -341 -126 -344 -124 -1 2
-16 37 -31 78 -21 53 -35 76 -48 79 -11 2 -23 8 -26 13 -4 6 -21 12 -38 14
-49 6 -90 31 -97 61 -6 21 -1 31 22 51 27 23 33 24 110 18 99 -7 113 2 93 59
-17 47 3 88 45 93 22 3 36 -5 71 -43 49 -54 74 -56 87 -8 11 44 62 85 101 81
16 -2 35 -11 41 -20z m46 -438 c9 -17 7 -22 -12 -29 -13 -5 -89 -32 -168 -61
-137 -49 -145 -50 -158 -33 -11 15 -10 19 5 25 51 21 309 117 315 118 4 0 12
-9 18 -20z"/>
<path d="M13603 1058 c-10 -17 -5 -211 8 -276 6 -29 26 -75 45 -103 19 -28 34
-55 34 -61 0 -14 -35 -62 -92 -130 -64 -74 -71 -111 -29 -156 23 -24 38 -32
65 -32 30 0 40 7 76 52 54 69 119 138 129 138 4 0 32 -12 62 -27 77 -38 181
-38 301 1 48 15 89 35 92 43 8 21 -9 49 -68 111 -74 78 -131 105 -237 110
l-87 4 -6 57 c-14 116 -91 225 -189 266 -44 18 -93 20 -104 3z m147 -117 c55
-55 80 -120 80 -207 0 -44 4 -56 25 -72 23 -19 28 -19 73 -6 81 25 203 -17
252 -86 l21 -29 -38 -17 c-21 -9 -69 -18 -108 -21 -66 -5 -74 -3 -139 31 -38
20 -78 36 -90 35 -18 0 -92 -76 -175 -179 -15 -19 -22 -22 -32 -13 -9 9 2 29
51 89 34 43 64 84 67 91 3 7 13 13 23 13 10 0 23 6 29 14 15 18 -4 57 -50 101
-53 51 -63 80 -67 198 -5 128 2 134 78 58z"/>
<path d="M16746 1039 c-35 -27 -86 -117 -86 -150 0 -14 8 -33 18 -41 26 -24
206 -148 408 -283 153 -102 195 -124 263 -144 82 -24 107 -23 117 4 8 21 -54
210 -74 228 -9 8 -40 26 -69 41 -75 37 -270 171 -403 275 -63 50 -122 91 -131
91 -9 0 -28 -9 -43 -21z m70 -83 c7 -18 -34 -76 -53 -76 -24 0 -25 28 -3 60
23 32 47 39 56 16z m109 -86 c20 -23 306 -214 374 -251 36 -19 47 -33 59 -67
8 -24 12 -46 9 -49 -16 -15 -86 21 -250 131 -229 154 -277 188 -277 199 0 17
35 56 51 57 9 0 24 -9 34 -20z"/>
<path d="M6860 884 c-30 -20 -91 -54 -135 -75 -119 -59 -116 -51 -63 -166 64
-139 64 -136 28 -171 -75 -75 -2 -201 89 -152 28 14 44 65 37 111 -3 22 -31
96 -60 165 l-54 125 67 34 c36 19 85 46 109 60 l42 26 8 -23 c5 -13 21 -59 37
-103 l28 -81 -26 -26 c-34 -34 -37 -98 -7 -128 30 -30 83 -27 110 7 18 23 20
35 15 72 -10 64 -112 334 -132 349 -24 17 -32 16 -93 -24z"/>
</g>
</svg>
