<?xml version="1.0" standalone="no"?>
<!DOCTYPE svg PUBLIC "-//W3C//DTD SVG 20010904//EN"
 "http://www.w3.org/TR/2001/REC-SVG-20010904/DTD/svg10.dtd">
<svg version="1.0" xmlns="http://www.w3.org/2000/svg"
 width="84.000000pt" height="98.000000pt" viewBox="0 0 84.000000 98.000000"
 preserveAspectRatio="xMidYMid meet">

<g transform="translate(0.000000,98.000000) scale(0.100000,-0.100000)"
fill="#000000" stroke="none">
<path d="M294 867 c-3 -9 -1 -49 5 -89 17 -109 -6 -207 -62 -274 -46 -55 -32
-89 63 -144 48 -28 118 -120 155 -203 25 -58 52 -81 79 -71 18 7 20 35 6 84
-14 48 -14 158 0 195 6 17 37 56 68 88 68 68 65 80 -23 114 -33 13 -73 37 -91
54 -44 42 -93 137 -100 193 -8 53 -7 52 -56 61 -29 6 -39 4 -44 -8z m194 -327
c25 -16 52 -30 59 -30 8 0 -3 -21 -26 -50 -26 -33 -44 -69 -52 -105 l-12 -56
-45 51 c-24 27 -63 62 -87 76 l-44 25 29 40 c16 22 37 71 46 109 l18 68 34
-49 c19 -27 55 -62 80 -79z"/>
</g>
</svg>
